<svg width="24" height="25" viewBox="0 0 24 25" fill="none" xmlns="http://www.w3.org/2000/svg">
<path opacity="0.1" fill-rule="evenodd" clip-rule="evenodd" d="M0 12.2354C0 5.60793 5.37258 0.235352 12 0.235352C18.6274 0.235352 24 5.60793 24 12.2354C24 18.8628 18.6274 24.2354 12 24.2354C5.37258 24.2354 0 18.8628 0 12.2354Z" fill="white"/>
<path fill-rule="evenodd" clip-rule="evenodd" d="M18.4 12.2266C18.4 12.6594 18.3559 13.0916 18.2694 13.5129C18.185 13.9242 18.06 14.328 17.8962 14.7141C17.7363 15.0932 17.5378 15.4586 17.3059 15.7994C17.0775 16.138 16.8143 16.4557 16.5252 16.7453C16.2355 17.0336 15.9168 17.2961 15.5783 17.5255C15.2364 17.7557 14.8705 17.9539 14.4911 18.1146C14.1045 18.2775 13.6998 18.4024 13.2888 18.4866C12.867 18.5734 12.4332 18.6177 11.9997 18.6177C11.5659 18.6177 11.1322 18.5734 10.7109 18.4866C10.2993 18.4024 9.89462 18.2775 9.50835 18.1146C9.12896 17.9539 8.76267 17.7557 8.42079 17.5255C8.08234 17.2961 7.76357 17.0336 7.47449 16.7453C7.18511 16.4557 6.92196 16.138 6.6932 15.7994C6.46256 15.4586 6.26379 15.0932 6.10317 14.7141C5.93939 14.328 5.81409 13.9242 5.72939 13.5129C5.64377 13.0916 5.60001 12.6594 5.60001 12.2266C5.60001 11.7934 5.64374 11.3603 5.72942 10.9399C5.81411 10.5286 5.93941 10.1242 6.10319 9.73877C6.26381 9.35931 6.46259 8.99358 6.69322 8.65279C6.92198 8.3139 7.18514 7.99682 7.47452 7.7069C7.7636 7.41854 8.08236 7.15674 8.42081 6.92769C8.7627 6.69643 9.12898 6.4983 9.50837 6.33726C9.89465 6.17402 10.2993 6.04889 10.7109 5.96527C11.1322 5.87915 11.566 5.83545 11.9997 5.83545C12.4332 5.83545 12.867 5.87915 13.2889 5.96527C13.6998 6.04892 14.1045 6.17404 14.4911 6.33726C14.8705 6.49827 15.2365 6.69643 15.5783 6.92769C15.9168 7.15674 16.2356 7.41854 16.5253 7.7069C16.8144 7.99682 17.0775 8.3139 17.3059 8.65279C17.5378 8.99358 17.7363 9.35934 17.8962 9.73877C18.06 10.1242 18.185 10.5286 18.2694 10.9399C18.3559 11.3603 18.4 11.7934 18.4 12.2266ZM9.6677 7.28998C8.14354 8.00869 7.00598 9.4111 6.65127 11.1013C6.79536 11.1025 9.07298 11.1312 11.6972 10.435C10.7512 8.75669 9.74052 7.38706 9.6677 7.28998ZM12.15 11.2754C9.3358 12.1167 6.63534 12.0562 6.53847 12.0524C6.53689 12.1111 6.53408 12.1679 6.53408 12.2266C6.53408 13.6287 7.06379 14.9069 7.93447 15.8734C7.93259 15.8706 9.42831 13.2208 12.3778 12.2684C12.4491 12.2447 12.5216 12.2234 12.5935 12.2029C12.4563 11.8927 12.3066 11.5819 12.15 11.2754ZM15.6093 8.13039C14.647 7.28311 13.3835 6.76917 11.9997 6.76917C11.5556 6.76917 11.1246 6.82285 10.7118 6.92208C10.7937 7.03194 11.8203 8.39191 12.755 10.1058C14.8174 9.33372 15.5958 8.15035 15.6093 8.13039ZM12.966 13.1072C12.9538 13.1112 12.9417 13.1147 12.9298 13.1191C9.70498 14.2417 8.65187 16.504 8.64048 16.5287C9.56836 17.2493 10.7322 17.684 11.9997 17.684C12.7566 17.684 13.4776 17.5301 14.1336 17.2515C14.0526 16.7746 13.7351 15.1032 12.966 13.1072ZM15.0539 16.7528C16.2812 15.9258 17.1528 14.6126 17.3959 13.0916C17.2834 13.0554 15.7543 12.572 13.9901 12.8544C14.707 14.8217 14.9983 16.4239 15.0539 16.7528ZM13.1757 10.919C13.3026 11.1793 13.4254 11.4442 13.5389 11.7104C13.5792 11.8059 13.6186 11.8995 13.657 11.9931C15.5346 11.7572 17.3844 12.1542 17.4635 12.1704C17.451 10.8766 16.9875 9.68914 16.2206 8.75952C16.2103 8.77415 15.3337 10.039 13.1757 10.919Z" fill="white"/>
</svg>
