<svg width="30" height="30" viewBox="0 0 30 30" fill="none" xmlns="http://www.w3.org/2000/svg">
<mask id="mask0_0_64" style="mask-type:luminance" maskUnits="userSpaceOnUse" x="0" y="0" width="30" height="30">
<path fill-rule="evenodd" clip-rule="evenodd" d="M15 0H30V30H15H3.05176e-05V0H15Z" fill="white"/>
</mask>
<g mask="url(#mask0_0_64)">
<path fill-rule="evenodd" clip-rule="evenodd" d="M27.3178 14.9984C27.3024 14.9983 27.287 14.9981 27.2717 14.998C27.2717 13.7486 27.296 12.4986 27.2646 11.25C27.2349 10.0721 27.1906 8.89128 27.0711 7.72002C26.9567 6.59964 26.562 5.5671 25.8057 4.69626C24.7476 3.4779 23.351 2.96454 21.8048 2.87016C20.045 2.76282 18.2793 2.73636 16.5158 2.71482C14.7608 2.69346 13.0047 2.7006 11.25 2.73582C10.0722 2.7594 8.89125 2.80944 7.71999 2.92896C6.59967 3.04326 5.56713 3.43806 4.69623 4.19436C3.47787 5.25246 2.96457 6.64902 2.87019 8.19528C2.76279 9.95502 2.73633 11.7207 2.71485 13.4843C2.69343 15.2393 2.70063 16.9953 2.73579 18.7501C2.75943 19.9279 2.80947 21.1088 2.92899 22.28C3.04329 23.4004 3.43803 24.4329 4.19439 25.3038C5.25249 26.5221 6.64905 27.0355 8.19531 27.1298C9.95505 27.2372 11.7207 27.2636 13.4843 27.2852C15.2393 27.3065 16.9956 27.3071 18.75 27.262C20.0455 27.2287 21.354 27.2039 22.6297 27.0037C24.81 26.6614 26.2853 25.3972 26.8723 23.2332C27.0625 22.532 27.1622 21.7909 27.1892 21.0638C27.2641 19.0432 27.2791 17.0204 27.3178 14.9984ZM3.05176e-05 19.9405C3.05176e-05 16.6468 3.05176e-05 13.3532 3.05176e-05 10.0595C0.0165305 9.96588 0.0450305 9.87258 0.0478505 9.77856C0.0823505 8.61912 0.134551 7.46172 0.418711 6.32946C1.05975 3.77514 2.54109 1.91652 4.97733 0.8631C6.29841 0.29184 7.70217 0.12582 9.12477 0.06768C9.43677 0.0549 9.74799 0.02304 10.0595 0H19.9405C20.0342 0.01656 20.1274 0.04506 20.2215 0.04782C21.3808 0.08238 22.5383 0.13452 23.6705 0.41868C26.2249 1.05978 28.0835 2.54112 29.137 4.97736C29.7082 6.29844 29.8739 7.70226 29.9323 9.12474C29.9451 9.43674 29.9769 9.74796 30 10.0595V19.9405C29.9835 20.0341 29.955 20.1274 29.9522 20.2215C29.9178 21.3809 29.8653 22.5383 29.5813 23.6705C28.9404 26.2249 27.4589 28.0834 25.0227 29.137C23.7016 29.7082 22.2978 29.8738 20.8752 29.9323C20.5632 29.9452 20.2521 29.977 19.9405 30H10.0595C9.96591 29.9834 9.87261 29.9549 9.77853 29.9522C8.61915 29.9178 7.46175 29.8654 6.32955 29.5813C3.77517 28.9403 1.91655 27.4589 0.86307 25.0227C0.29187 23.7016 0.125851 22.2979 0.0677105 20.8752C0.0549305 20.5633 0.0230705 20.252 3.05176e-05 19.9405Z" fill="#E43071"/>
</g>
<path fill-rule="evenodd" clip-rule="evenodd" d="M14.9958 19.99C17.726 19.9901 19.9874 17.756 19.99 15.0562C19.9927 12.2749 17.7768 10.012 15.0487 10.0099C12.2573 10.0078 10.0103 12.2278 10.0099 14.9883C10.0096 17.7485 12.2439 19.9899 14.9958 19.99ZM22.7087 15.0064C22.7071 19.2718 19.2516 22.7148 14.9786 22.7086C10.7295 22.7025 7.28828 19.2489 7.29128 14.9934C7.29434 10.7266 10.7493 7.28419 15.0213 7.29127C19.2717 7.29829 22.7103 10.7493 22.7087 15.0064Z" fill="#E43071"/>
<path fill-rule="evenodd" clip-rule="evenodd" d="M22.9906 5.1885C23.998 5.18394 24.8093 5.98626 24.8116 6.98922C24.814 7.99194 24.0049 8.80524 23.0032 8.80728C22.0106 8.80926 21.1891 7.98354 21.1928 6.9876C21.1966 6.00222 22.0052 5.19294 22.9906 5.1885Z" fill="#E43071"/>
</svg>
