<svg width="21" height="20" viewBox="0 0 21 20" fill="none" xmlns="http://www.w3.org/2000/svg">
<path d="M1.04199 18.2058C0.466514 17.6099 0.483089 16.6603 1.07901 16.0848L5.26548 12.042C5.8614 11.4665 6.811 11.4831 7.38648 12.079C7.96195 12.675 7.94537 13.6246 7.34945 14.2L3.16298 18.2429C2.56706 18.8183 1.61746 18.8018 1.04199 18.2058Z" fill="white"/>
<path fill-rule="evenodd" clip-rule="evenodd" d="M12.2593 12.7232C14.9443 12.7232 17.1209 10.5466 17.1209 7.86161C17.1209 5.17662 14.9443 3 12.2593 3C9.57426 3 7.39764 5.17662 7.39764 7.86161C7.39764 10.5466 9.57426 12.7232 12.2593 12.7232ZM12.2593 15.7232C16.6011 15.7232 20.1209 12.2035 20.1209 7.86161C20.1209 3.51976 16.6011 0 12.2593 0C7.91741 0 4.39764 3.51976 4.39764 7.86161C4.39764 12.2035 7.91741 15.7232 12.2593 15.7232Z" fill="white"/>
</svg>
