<svg width="25" height="30" viewBox="0 0 25 30" fill="none" xmlns="http://www.w3.org/2000/svg">
<path fill-rule="evenodd" clip-rule="evenodd" d="M20.1905 11.3938H18.6105V10.4722C18.0115 11.1639 17.5038 11.5133 16.9503 11.5133C16.4647 11.5133 16.1275 11.2825 15.9586 10.8654C15.856 10.6119 15.7832 10.2159 15.7832 9.63444V2.93213H17.3632V9.21554V9.802C17.4 10.0372 17.4991 10.123 17.7 10.123C18.0024 10.123 18.2761 9.85829 18.6105 9.3831V2.93213H20.1905V11.3938Z" fill="#E43071"/>
<path fill-rule="evenodd" clip-rule="evenodd" d="M13.0391 8.88057C13.1223 9.71835 12.8643 10.1341 12.3737 10.1341C11.8832 10.1341 11.6255 9.71835 11.7086 8.88057V5.52941C11.6255 4.69162 11.8833 4.29895 12.3739 4.29895C12.8645 4.29895 13.1231 4.69162 13.0399 5.52941L13.0391 8.88057ZM14.6191 5.69697C14.6191 4.79266 14.4388 4.11372 14.1201 3.68628C13.6992 3.10753 13.0391 2.87061 12.3739 2.87061C11.6209 2.87061 11.0479 3.10753 10.6276 3.68628C10.3039 4.11372 10.1303 4.80003 10.1303 5.70434L10.1287 8.71301C10.1287 9.61212 10.2831 10.2334 10.6069 10.6568C11.0272 11.2337 11.7086 11.5394 12.3739 11.5394C13.0391 11.5394 13.7325 11.2337 14.1534 10.6568C14.472 10.2334 14.6191 9.61212 14.6191 8.71301V5.69697Z" fill="#E43071"/>
<mask id="mask0_0_43" style="mask-type:luminance" maskUnits="userSpaceOnUse" x="4" y="0" width="7" height="12">
<path fill-rule="evenodd" clip-rule="evenodd" d="M10.4613 0.0837402H4.64045L4.64045 11.3939H10.4613V0.0837402Z" fill="white"/>
</mask>
<g mask="url(#mask0_0_43)">
<path fill-rule="evenodd" clip-rule="evenodd" d="M8.38243 6.78605V11.3939H6.71933V6.78605C6.71933 6.78605 4.99594 1.13676 4.64045 0.0837402H6.38671L7.55379 4.49679L8.71505 0.0837402H10.4613L8.38243 6.78605Z" fill="#E43071"/>
</g>
<path fill-rule="evenodd" clip-rule="evenodd" d="M14.9686 19.5422C14.7208 19.5422 14.4368 19.674 14.1851 19.9244L14.1834 25.0052C14.4351 25.2588 14.7208 25.3873 14.9686 25.3873C15.4027 25.3873 15.5987 25.0663 15.5987 24.2285V20.626C15.5987 19.7882 15.4027 19.5422 14.9686 19.5422Z" fill="#E43071"/>
<path fill-rule="evenodd" clip-rule="evenodd" d="M21.1701 20.5493C21.1701 19.7749 20.9715 19.5422 20.4724 19.5422C19.9695 19.5422 19.7565 19.7558 19.7565 20.5388V21.4654L21.1701 21.4639V20.5493Z" fill="#E43071"/>
<mask id="mask1_0_43" style="mask-type:luminance" maskUnits="userSpaceOnUse" x="0" y="12" width="25" height="18">
<path fill-rule="evenodd" clip-rule="evenodd" d="M1.52588e-05 29.9991H24.8309V12.4829H1.52588e-05V29.9991Z" fill="white"/>
</mask>
<g mask="url(#mask1_0_43)">
<path fill-rule="evenodd" clip-rule="evenodd" d="M20.4864 25.3872C20.857 25.3872 21.073 25.1841 21.1589 24.7786C21.1729 24.696 21.1702 24.3343 21.1702 23.7257H22.7501V23.9631C22.7501 24.4519 22.7101 24.7978 22.6966 24.9496C22.6458 25.2859 22.5276 25.5901 22.3446 25.8585C21.9281 26.4664 21.3103 26.7659 20.5237 26.7659C19.7362 26.7659 19.1368 26.4804 18.7015 25.9084C18.3816 25.4895 18.1766 24.8667 18.1766 23.977V21.0448C18.1766 20.15 18.3632 19.4583 18.683 19.0348C19.1184 18.462 19.7179 18.1588 20.4864 18.1588C21.2416 18.1588 21.8411 18.462 22.263 19.0348C22.5777 19.4583 22.7527 20.1128 22.7527 21.0077L22.753 22.7204H19.7565V24.2249C19.7513 24.998 19.9696 25.3872 20.4864 25.3872ZM17.1787 24.1446C17.1787 24.9189 17.1129 25.4653 17.0124 25.8202C16.8115 26.4426 16.3734 26.7659 15.774 26.7659C15.2387 26.7659 14.6902 26.4415 14.1872 25.8145L14.1851 26.658H12.6883V15.4316H14.1851L14.1834 19.0916C14.6697 18.4888 15.2202 18.1457 15.774 18.1457C16.3734 18.1457 16.7764 18.4945 16.9773 19.1215C17.0778 19.4583 17.1787 20.0005 17.1787 20.7934V24.1446ZM11.441 26.658H9.86106V25.7364C9.26209 26.4281 8.75434 26.7774 8.20086 26.7774C7.71524 26.7774 7.37796 26.5466 7.20916 26.1296C7.10654 25.876 7.03378 25.4801 7.03378 24.8986V18.2801H8.61373V24.4797V25.0662C8.65057 25.3013 8.74969 25.3872 8.95059 25.3872C9.25294 25.3872 9.52661 25.1225 9.86106 24.6473V18.2801H11.441V26.658ZM5.45383 26.658H3.79073V17.0234H2.04447V15.4334L7.28325 15.4316V17.0234H5.45383V26.658ZM24.5829 16.2617C24.5829 16.2617 24.3403 14.5455 23.5958 13.7896C22.6517 12.7978 21.5931 12.7928 21.1078 12.7348C17.6331 12.4829 12.421 12.4829 12.421 12.4829H12.4101C12.4101 12.4829 7.19776 12.4829 3.72312 12.7348C3.23766 12.7928 2.1796 12.7978 1.23512 13.7896C0.490631 14.5455 0.248317 16.2617 0.248317 16.2617C0.248317 16.2617 1.52588e-05 18.2769 1.52588e-05 20.2924V22.1818C1.52588e-05 24.1971 0.248317 26.2124 0.248317 26.2124C0.248317 26.2124 0.490631 27.9285 1.23512 28.6843C2.1796 29.6764 3.4206 29.6448 3.97309 29.7488C5.95958 29.9401 12.4155 29.9991 12.4155 29.9991C12.4155 29.9991 17.6331 29.9913 21.1078 29.7394C21.5931 29.6814 22.6517 29.6764 23.5958 28.6843C24.3403 27.9285 24.5829 26.2124 24.5829 26.2124C24.5829 26.2124 24.8309 24.1971 24.8309 22.1818V20.2924C24.8309 18.2769 24.5829 16.2617 24.5829 16.2617Z" fill="#E43071"/>
</g>
</svg>
